<svg width="25" height="24" viewBox="0 0 25 24" fill="none" xmlns="http://www.w3.org/2000/svg">
<g clip-path="url(#clip0_5378_10038)">
<path d="M12.6016 2C7.08156 2 2.60156 6.48 2.60156 12C2.60156 17.52 7.08156 22 12.6016 22C18.1216 22 22.6016 17.52 22.6016 12C22.6016 6.48 18.1216 2 12.6016 2ZM12.6016 5C14.2616 5 15.6016 6.34 15.6016 8C15.6016 9.66 14.2616 11 12.6016 11C10.9416 11 9.60156 9.66 9.60156 8C9.60156 6.34 10.9416 5 12.6016 5ZM12.6016 19.2C10.1016 19.2 7.89156 17.92 6.60156 15.98C6.63156 13.99 10.6016 12.9 12.6016 12.9C14.5916 12.9 18.5716 13.99 18.6016 15.98C17.3116 17.92 15.1016 19.2 12.6016 19.2Z" fill="black"/>
</g>
<defs>
<clipPath id="clip0_5378_10038">
<rect width="24" height="24" fill="white" transform="translate(0.601562)"/>
</clipPath>
</defs>
</svg>
